<?xml version="1.0" standalone="yes"?>

<svg version="1.1" viewBox="0.0 0.0 625.2125984251968 196.6220472440945" fill="none" stroke="none" stroke-linecap="square" stroke-miterlimit="10" xmlns="http://www.w3.org/2000/svg" xmlns:xlink="http://www.w3.org/1999/xlink"><clipPath id="p.0"><path d="m0 0l625.2126 0l0 196.62204l-625.2126 0l0 -196.62204z" clip-rule="nonzero"></path></clipPath><g clip-path="url(#p.0)"><path fill="#000000" fill-opacity="0.0" d="m0 0l625.2126 0l0 196.62204l-625.2126 0z" fill-rule="nonzero"></path><path fill="#cfe2f3" d="m357.60236 144.03018l0 -108.0l93.0 21.599998l0 64.8z" fill-rule="nonzero"></path><path stroke="#000000" stroke-width="1.0" stroke-linejoin="round" stroke-linecap="butt" d="m357.60236 144.03018l0 -108.0l93.0 21.599998l0 64.8z" fill-rule="nonzero"></path><path fill="#f4cccc" d="m0 96.519684l0 0c0 -33.406704 27.081484 -60.488186 60.48819 -60.488186l0 0c16.042465 0 31.427872 6.372841 42.771606 17.71658c11.343735 11.343735 17.716583 26.729141 17.716583 42.771606l0 0c0 33.406708 -27.08149 60.48819 -60.48819 60.48819l0 0c-33.406708 0 -60.48819 -27.081482 -60.48819 -60.48819z" fill-rule="nonzero"></path><path stroke="#000000" stroke-width="1.0" stroke-linejoin="round" stroke-linecap="butt" d="m0 96.519684l0 0c0 -33.406704 27.081484 -60.488186 60.48819 -60.488186l0 0c16.042465 0 31.427872 6.372841 42.771606 17.71658c11.343735 11.343735 17.716583 26.729141 17.716583 42.771606l0 0c0 33.406708 -27.08149 60.48819 -60.48819 60.48819l0 0c-33.406708 0 -60.48819 -27.081482 -60.48819 -60.48819z" fill-rule="nonzero"></path><path fill="#000000" d="m29.343452 103.43968l5.234375 -13.59375l1.9375 0l5.5625 13.59375l-2.046875 0l-1.59375 -4.125l-5.6875 0l-1.484375 4.125l-1.921875 0zm3.921875 -5.578125l4.609375 0l-1.40625 -3.78125q-0.65625 -1.703125 -0.96875 -2.8125q-0.265625 1.3125 -0.734375 2.59375l-1.5 4.0zm9.506073 6.390625l1.609375 0.25q0.109375 0.75 0.578125 1.09375q0.609375 0.453125 1.6875 0.453125q1.171875 0 1.796875 -0.46875q0.625 -0.453125 0.859375 -1.28125q0.125 -0.515625 0.109375 -2.15625q-1.09375 1.296875 -2.71875 1.296875q-2.03125 0 -3.15625 -1.46875q-1.109375 -1.46875 -1.109375 -3.515625q0 -1.40625 0.515625 -2.59375q0.515625 -1.203125 1.484375 -1.84375q0.96875 -0.65625 2.265625 -0.65625q1.75 0 2.875 1.40625l0 -1.1875l1.546875 0l0 8.515625q0 2.3125 -0.46875 3.265625q-0.46875 0.96875 -1.484375 1.515625q-1.015625 0.5625 -2.5 0.5625q-1.765625 0 -2.859375 -0.796875q-1.078125 -0.796875 -1.03125 -2.390625zm1.375 -5.921875q0 1.953125 0.765625 2.84375q0.78125 0.890625 1.9375 0.890625q1.140625 0 1.921875 -0.890625q0.78125 -0.890625 0.78125 -2.78125q0 -1.8125 -0.8125 -2.71875q-0.796875 -0.921875 -1.921875 -0.921875q-1.109375 0 -1.890625 0.90625q-0.78125 0.890625 -0.78125 2.671875zm16.047592 1.9375l1.71875 0.21875q-0.40625 1.5 -1.515625 2.34375q-1.09375 0.828125 -2.8125 0.828125q-2.15625 0 -3.421875 -1.328125q-1.265625 -1.328125 -1.265625 -3.734375q0 -2.484375 1.265625 -3.859375q1.28125 -1.375 3.328125 -1.375q1.984375 0 3.234375 1.34375q1.25 1.34375 1.25 3.796875q0 0.140625 -0.015625 0.4375l-7.34375 0q0.09375 1.625 0.921875 2.484375q0.828125 0.859375 2.0625 0.859375q0.90625 0 1.546875 -0.46875q0.65625 -0.484375 1.046875 -1.546875zm-5.484375 -2.703125l5.5 0q-0.109375 -1.234375 -0.625 -1.859375q-0.796875 -0.96875 -2.078125 -0.96875q-1.140625 0 -1.9375 0.78125q-0.78125 0.765625 -0.859375 2.046875zm9.110092 5.875l0 -9.859375l1.5 0l0 1.40625q1.09375 -1.625 3.140625 -1.625q0.890625 0 1.640625 0.328125q0.75 0.3125 1.109375 0.84375q0.375 0.515625 0.53125 1.21875q0.09375 0.46875 0.09375 1.625l0 6.0625l-1.671875 0l0 -6.0q0 -1.015625 -0.203125 -1.515625q-0.1875 -0.515625 -0.6875 -0.8125q-0.5 -0.296875 -1.171875 -0.296875q-1.0625 0 -1.84375 0.671875q-0.765625 0.671875 -0.765625 2.578125l0 5.375l-1.671875 0zm16.813217 -3.609375l1.6406326 0.21875q-0.265625 1.6875 -1.3750076 2.65625q-1.109375 0.953125 -2.734375 0.953125q-2.015625 0 -3.25 -1.3125q-1.21875 -1.328125 -1.21875 -3.796875q0 -1.59375 0.515625 -2.78125q0.53125 -1.203125 1.609375 -1.796875q1.09375 -0.609375 2.359375 -0.609375q1.609375 0 2.625 0.8125q1.0156326 0.8125 1.3125076 2.3125l-1.6250076 0.25q-0.234375 -1.0 -0.828125 -1.5q-0.59375 -0.5 -1.421875 -0.5q-1.265625 0 -2.0625 0.90625q-0.78125 0.90625 -0.78125 2.859375q0 1.984375 0.765625 2.890625q0.765625 0.890625 1.984375 0.890625q0.984375 0 1.640625 -0.59375q0.65625 -0.609375 0.84375 -1.859375zm2.8125076 7.40625l-0.171875 -1.5625q0.546875 0.140625 0.953125 0.140625q0.546875 0 0.875 -0.1875q0.34375 -0.1875 0.5625 -0.515625q0.15625 -0.25 0.5 -1.25q0.046875 -0.140625 0.15625 -0.40625l-3.734375 -9.875l1.796875 0l2.046875 5.71875q0.40625 1.078125 0.71875 2.28125q0.28125 -1.15625 0.6875 -2.25l2.09375 -5.75l1.671875 0l-3.75 10.03125q-0.59375 1.625 -0.9375 2.234375q-0.4375 0.828125 -1.015625 1.203125q-0.578125 0.390625 -1.375 0.390625q-0.484375 0 -1.078125 -0.203125z" fill-rule="nonzero"></path><path fill="#000000" fill-opacity="0.0" d="m103.259796 53.748077l252.8504 6.2362213" fill-rule="nonzero"></path><path stroke="#000000" stroke-width="3.0" stroke-linejoin="round" stroke-linecap="butt" d="m103.2598 53.748077l234.85587 5.792412" fill-rule="evenodd"></path><path fill="#000000" stroke="#000000" stroke-width="3.0" stroke-linecap="butt" d="m337.9935 64.49418l13.73233 -4.6180153l-13.487976 -5.2893677z" fill-rule="evenodd"></path><path fill="#000000" fill-opacity="0.0" d="m141.57217 15.039371l195.43307 0l0 38.992126l-195.43307 0z" fill-rule="nonzero"></path><path fill="#000000" d="m160.57042 41.95937l0 -13.593752l5.109375 0q1.546875 0 2.484375 0.40625q0.953125 0.40625 1.484375 1.265625q0.53125 0.859375 0.53125 1.796875q0 0.8750019 -0.46875 1.6562519q-0.46875 0.765625 -1.4375 1.234375q1.234375 0.359375 1.890625 1.234375q0.671875 0.875 0.671875 2.0625q0 0.953125 -0.40625 1.78125q-0.390625 0.8125 -0.984375 1.265625q-0.59375 0.4375 -1.5 0.671875q-0.890625 0.21875 -2.1875 0.21875l-5.1875 0zm1.796875 -7.890625l2.9375 0q1.203125 0 1.71875 -0.15625q0.6875 -0.203125 1.03125 -0.671875q0.359375 -0.46875 0.359375 -1.1875q0 -0.6718769 -0.328125 -1.1875019q-0.328125 -0.515625 -0.9375 -0.703125q-0.59375 -0.203125 -2.0625 -0.203125l-2.71875 0l0 4.109377zm0 6.28125l3.390625 0q0.875 0 1.21875 -0.0625q0.625 -0.109375 1.046875 -0.359375q0.421875 -0.265625 0.6875 -0.765625q0.265625 -0.5 0.265625 -1.140625q0 -0.765625 -0.390625 -1.328125q-0.390625 -0.5625 -1.078125 -0.78125q-0.6875 -0.234375 -1.984375 -0.234375l-3.15625 0l0 4.671875zm9.224823 1.609375l5.234375 -13.593752l1.9375 0l5.5625 13.593752l-2.046875 0l-1.59375 -4.125l-5.6875 0l-1.484375 4.125l-1.921875 0zm3.921875 -5.578125l4.609375 0l-1.40625 -3.78125q-0.65625 -1.7031269 -0.96875 -2.812502q-0.265625 1.3125 -0.734375 2.593752l-1.5 4.0zm9.412323 1.203125l1.6875 -0.140625q0.125 1.015625 0.5625 1.671875q0.4375 0.65625 1.359375 1.0625q0.9375 0.40625 2.09375 0.40625q1.03125 0 1.8125 -0.3125q0.796875 -0.3125 1.1875 -0.84375q0.390625 -0.53125 0.390625 -1.15625q0 -0.640625 -0.375 -1.109375q-0.375 -0.484375 -1.234375 -0.8125q-0.546875 -0.21875 -2.421875 -0.65625q-1.875 -0.453125 -2.625 -0.859375q-0.96875 -0.515625 -1.453125 -1.265625q-0.46875 -0.75 -0.46875 -1.6875019q0 -1.03125 0.578125 -1.921875q0.59375 -0.90625 1.703125 -1.359375q1.125 -0.46875 2.5 -0.46875q1.515625 0 2.671875 0.484375q1.15625 0.484375 1.765625 1.4375q0.625 0.9375 0.671875 2.140627l-1.71875 0.125q-0.140625 -1.2812519 -0.953125 -1.9375019q-0.796875 -0.671875 -2.359375 -0.671875q-1.625 0 -2.375 0.609375q-0.75 0.59375 -0.75 1.4375q0 0.7343769 0.53125 1.2031269q0.515625 0.46875 2.703125 0.96875q2.203125 0.5 3.015625 0.875q1.1875 0.546875 1.75 1.390625q0.578125 0.828125 0.578125 1.921875q0 1.09375 -0.625 2.0625q-0.625 0.953125 -1.796875 1.484375q-1.15625 0.53125 -2.609375 0.53125q-1.84375 0 -3.09375 -0.53125q-1.25 -0.546875 -1.96875 -1.625q-0.703125 -1.078125 -0.734375 -2.453125zm13.349823 4.375l0 -13.593752l1.8125 0l0 13.593752l-1.8125 0zm14.589554 -4.765625l1.796875 0.453125q-0.5625 2.21875 -2.03125 3.390625q-1.46875 1.15625 -3.59375 1.15625q-2.203125 0 -3.578125 -0.890625q-1.375 -0.90625 -2.09375 -2.59375q-0.71875 -1.703125 -0.71875 -3.65625q0 -2.125 0.796875 -3.703127q0.8125 -1.578125 2.3125 -2.390625q1.5 -0.828125 3.296875 -0.828125q2.046875 0 3.4375 1.046875q1.390625 1.03125 1.9375 2.906252l-1.765625 0.421875q-0.46875 -1.4843769 -1.375 -2.156252q-0.90625 -0.6875 -2.265625 -0.6875q-1.5625 0 -2.625 0.75q-1.046875 0.75 -1.484375 2.031252q-0.421875 1.265625 -0.421875 2.609375q0 1.734375 0.5 3.03125q0.515625 1.28125 1.578125 1.921875q1.078125 0.640625 2.3125 0.640625q1.515625 0 2.5625 -0.859375q1.046875 -0.875 1.421875 -2.59375zm7.453125 4.765625l5.234375 -13.593752l1.9375 0l5.5625 13.593752l-2.046875 0l-1.59375 -4.125l-5.6875 0l-1.484375 4.125l-1.921875 0zm3.921875 -5.578125l4.609375 0l-1.40625 -3.78125q-0.65625 -1.7031269 -0.96875 -2.812502q-0.265625 1.3125 -0.734375 2.593752l-1.5 4.0zm16.256073 5.578125l0 -1.453125q-1.140625 1.671875 -3.125 1.671875q-0.859375 0 -1.625 -0.328125q-0.75 -0.34375 -1.125 -0.84375q-0.359375 -0.5 -0.515625 -1.234375q-0.09375 -0.5 -0.09375 -1.5625l0 -6.109375l1.671875 0l0 5.46875q0 1.3125 0.09375 1.765625q0.15625 0.65625 0.671875 1.03125q0.515625 0.375 1.265625 0.375q0.75 0 1.40625 -0.375q0.65625 -0.390625 0.921875 -1.046875q0.28125 -0.671875 0.28125 -1.9375l0 -5.28125l1.671875 0l0 9.859375l-1.5 0zm7.578842 -1.5l0.234375 1.484375q-0.703125 0.140625 -1.265625 0.140625q-0.90625 0 -1.40625 -0.28125q-0.5 -0.296875 -0.703125 -0.75q-0.203125 -0.46875 -0.203125 -1.984375l0 -5.65625l-1.234375 0l0 -1.3125l1.234375 0l0 -2.437502l1.65625 -1.0l0 3.437502l1.6875 0l0 1.3125l-1.6875 0l0 5.75q0 0.71875 0.078125 0.921875q0.09375 0.203125 0.296875 0.328125q0.203125 0.125 0.578125 0.125q0.265625 0 0.734375 -0.078125zm1.5270538 1.5l0 -13.593752l1.671875 0l0 4.875002q1.171875 -1.3593769 2.953125 -1.3593769q1.09375 0 1.890625 0.4375019q0.8125 0.421875 1.15625 1.1875q0.359375 0.765625 0.359375 2.203125l0 6.25l-1.671875 0l0 -6.25q0 -1.25 -0.546875 -1.8125q-0.546875 -0.578125 -1.53125 -0.578125q-0.75 0 -1.40625 0.390625q-0.640625 0.375 -0.921875 1.046875q-0.28125 0.65625 -0.28125 1.8125l0 5.390625l-1.671875 0zm19.074646 -2.203125l0 -3.71875l-3.703125 0l0 -1.5625l3.703125 0l0 -3.703127l1.578125 0l0 3.703127l3.6875 0l0 1.5625l-3.6875 0l0 3.71875l-1.578125 0zm12.781403 2.203125l0 -13.593752l4.6875 0q1.578125 0 2.421875 0.1875q1.15625 0.265625 1.984375 0.96875q1.078125 0.921875 1.609375 2.34375q0.53125 1.4062519 0.53125 3.218752q0 1.546875 -0.359375 2.75q-0.359375 1.1875 -0.921875 1.984375q-0.5625 0.78125 -1.234375 1.234375q-0.671875 0.4375 -1.625 0.671875q-0.953125 0.234375 -2.1875 0.234375l-4.90625 0zm1.796875 -1.609375l2.90625 0q1.34375 0 2.109375 -0.25q0.765625 -0.25 1.21875 -0.703125q0.640625 -0.640625 1.0 -1.71875q0.359375 -1.078125 0.359375 -2.625q0 -2.125 -0.703125 -3.265627q-0.703125 -1.15625 -1.703125 -1.546875q-0.71875 -0.28125 -2.328125 -0.28125l-2.859375 0l0 10.390627zm17.894806 0.390625q-0.9375 0.796875 -1.796875 1.125q-0.859375 0.3125 -1.84375 0.3125q-1.609375 0 -2.484375 -0.78125q-0.875 -0.796875 -0.875 -2.03125q0 -0.734375 0.328125 -1.328125q0.328125 -0.59375 0.859375 -0.953125q0.53125 -0.359375 1.203125 -0.546875q0.5 -0.140625 1.484375 -0.25q2.03125 -0.25 2.984375 -0.578125q0 -0.34375 0 -0.4375q0 -1.015625 -0.46875 -1.4375q-0.640625 -0.5625 -1.90625 -0.5625q-1.171875 0 -1.734375 0.40625q-0.5625 0.40625 -0.828125 1.46875l-1.640625 -0.234375q0.234375 -1.046875 0.734375 -1.6875q0.515625 -0.640625 1.46875 -0.984375q0.96875 -0.3593769 2.25 -0.3593769q1.265625 0 2.046875 0.2968769q0.78125 0.296875 1.15625 0.75q0.375 0.453125 0.515625 1.140625q0.09375 0.421875 0.09375 1.53125l0 2.234375q0 2.328125 0.09375 2.953125q0.109375 0.609375 0.4375 1.171875l-1.75 0q-0.265625 -0.515625 -0.328125 -1.21875zm-0.140625 -3.71875q-0.90625 0.359375 -2.734375 0.625q-1.03125 0.140625 -1.453125 0.328125q-0.421875 0.1875 -0.65625 0.546875q-0.234375 0.359375 -0.234375 0.796875q0 0.671875 0.5 1.125q0.515625 0.4375 1.484375 0.4375q0.96875 0 1.71875 -0.421875q0.75 -0.4375 1.109375 -1.15625q0.265625 -0.578125 0.265625 -1.671875l0 -0.609375zm7.7351074 3.4375l0.234375 1.484375q-0.703125 0.140625 -1.265625 0.140625q-0.90625 0 -1.40625 -0.28125q-0.5 -0.296875 -0.703125 -0.75q-0.203125 -0.46875 -0.203125 -1.984375l0 -5.65625l-1.234375 0l0 -1.3125l1.234375 0l0 -2.437502l1.65625 -1.0l0 3.437502l1.6875 0l0 1.3125l-1.6875 0l0 5.75q0 0.71875 0.078125 0.921875q0.09375 0.203125 0.296875 0.328125q0.203125 0.125 0.578125 0.125q0.265625 0 0.734375 -0.078125zm7.9645386 0.28125q-0.9375 0.796875 -1.796875 1.125q-0.859375 0.3125 -1.84375 0.3125q-1.609375 0 -2.484375 -0.78125q-0.875 -0.796875 -0.875 -2.03125q0 -0.734375 0.328125 -1.328125q0.328125 -0.59375 0.859375 -0.953125q0.53125 -0.359375 1.203125 -0.546875q0.5 -0.140625 1.484375 -0.25q2.03125 -0.25 2.984375 -0.578125q0 -0.34375 0 -0.4375q0 -1.015625 -0.46875 -1.4375q-0.640625 -0.5625 -1.90625 -0.5625q-1.171875 0 -1.734375 0.40625q-0.5625 0.40625 -0.828125 1.46875l-1.640625 -0.234375q0.234375 -1.046875 0.734375 -1.6875q0.515625 -0.640625 1.46875 -0.984375q0.96875 -0.3593769 2.25 -0.3593769q1.265625 0 2.046875 0.2968769q0.78125 0.296875 1.15625 0.75q0.375 0.453125 0.515625 1.140625q0.09375 0.421875 0.09375 1.53125l0 2.234375q0 2.328125 0.09375 2.953125q0.109375 0.609375 0.4375 1.171875l-1.75 0q-0.265625 -0.515625 -0.328125 -1.21875zm-0.140625 -3.71875q-0.90625 0.359375 -2.734375 0.625q-1.03125 0.140625 -1.453125 0.328125q-0.421875 0.1875 -0.65625 0.546875q-0.234375 0.359375 -0.234375 0.796875q0 0.671875 0.5 1.125q0.515625 0.4375 1.484375 0.4375q0.96875 0 1.71875 -0.421875q0.75 -0.4375 1.109375 -1.15625q0.265625 -0.578125 0.265625 -1.671875l0 -0.609375z" fill-rule="nonzero"></path><path fill="#000000" fill-opacity="0.0" d="m452.09448 90.031494l0 0c0 -44.252357 35.873627 -80.125984 80.12598 -80.125984l0 0c21.250732 0 41.631104 8.44182 56.657654 23.468359c15.02655 15.026535 23.468323 35.40689 23.468323 56.657623l0 0c0 44.252365 -35.873596 80.12599 -80.12598 80.12599l0 0c-44.25235 0 -80.12598 -35.873627 -80.12598 -80.12599z" fill-rule="nonzero"></path><path stroke="#000000" stroke-width="1.0" stroke-linejoin="round" stroke-linecap="butt" d="m452.09448 90.031494l0 0c0 -44.252357 35.873627 -80.125984 80.12598 -80.125984l0 0c21.250732 0 41.631104 8.44182 56.657654 23.468359c15.02655 15.026535 23.468323 35.40689 23.468323 56.657623l0 0c0 44.252365 -35.873596 80.12599 -80.12598 80.12599l0 0c-44.25235 0 -80.12598 -35.873627 -80.12598 -80.12599z" fill-rule="nonzero"></path><path fill="#000000" d="m491.94583 96.95149l-5.28125 -13.59375l1.953125 0l3.53125 9.875q0.4375 1.1875 0.71875 2.21875q0.3125 -1.109375 0.734375 -2.21875l3.671875 -9.875l1.84375 0l-5.328125 13.59375l-1.84375 0zm14.771698 -1.21875q-0.9375 0.796875 -1.796875 1.125q-0.859375 0.3125 -1.84375 0.3125q-1.609375 0 -2.484375 -0.78125q-0.875 -0.796875 -0.875 -2.03125q0 -0.734375 0.328125 -1.328125q0.328125 -0.59375 0.859375 -0.953125q0.53125 -0.359375 1.203125 -0.546875q0.5 -0.140625 1.484375 -0.25q2.03125 -0.25 2.984375 -0.578125q0 -0.34375 0 -0.4375q0 -1.015625 -0.46875 -1.4375q-0.640625 -0.5625 -1.90625 -0.5625q-1.171875 0 -1.734375 0.40625q-0.5625 0.40625 -0.828125 1.46875l-1.640625 -0.234375q0.234375 -1.046875 0.734375 -1.6875q0.515625 -0.640625 1.46875 -0.984375q0.96875 -0.359375 2.25 -0.359375q1.265625 0 2.046875 0.296875q0.78125 0.296875 1.15625 0.75q0.375 0.453125 0.515625 1.140625q0.09375 0.421875 0.09375 1.53125l0 2.234375q0 2.328125 0.09375 2.953125q0.109375 0.609375 0.4375 1.171875l-1.75 0q-0.265625 -0.515625 -0.328125 -1.21875zm-0.140625 -3.71875q-0.90625 0.359375 -2.734375 0.625q-1.03125 0.140625 -1.453125 0.328125q-0.421875 0.1875 -0.65625 0.546875q-0.234375 0.359375 -0.234375 0.796875q0 0.671875 0.5 1.125q0.515625 0.4375 1.484375 0.4375q0.96875 0 1.71875 -0.421875q0.75 -0.4375 1.109375 -1.15625q0.265625 -0.578125 0.265625 -1.671875l0 -0.609375zm4.047577 4.9375l0 -13.59375l1.6719055 0l0 13.59375l-1.6719055 0zm4.191681 -11.6875l0 -1.90625l1.671875 0l0 1.90625l-1.671875 0zm0 11.6875l0 -9.859375l1.671875 0l0 9.859375l-1.671875 0zm10.519836 0l0 -1.25q-0.9375 1.46875 -2.75 1.46875q-1.171875 0 -2.171875 -0.640625q-0.984375 -0.65625 -1.53125 -1.8125q-0.53125 -1.171875 -0.53125 -2.6875q0 -1.46875 0.484375 -2.671875q0.5 -1.203125 1.46875 -1.84375q0.984375 -0.640625 2.203125 -0.640625q0.890625 0 1.578125 0.375q0.703125 0.375 1.140625 0.984375l0 -4.875l1.65625 0l0 13.59375l-1.546875 0zm-5.28125 -4.921875q0 1.890625 0.796875 2.828125q0.8125 0.9375 1.890625 0.9375q1.09375 0 1.859375 -0.890625q0.765625 -0.890625 0.765625 -2.734375q0 -2.015625 -0.78125 -2.953125q-0.78125 -0.953125 -1.921875 -0.953125q-1.109375 0 -1.859375 0.90625q-0.75 0.90625 -0.75 2.859375zm15.703857 3.703125q-0.9375 0.796875 -1.796875 1.125q-0.859375 0.3125 -1.84375 0.3125q-1.609375 0 -2.484375 -0.78125q-0.875 -0.796875 -0.875 -2.03125q0 -0.734375 0.328125 -1.328125q0.328125 -0.59375 0.859375 -0.953125q0.53125 -0.359375 1.203125 -0.546875q0.5 -0.140625 1.484375 -0.25q2.03125 -0.25 2.984375 -0.578125q0 -0.34375 0 -0.4375q0 -1.015625 -0.46875 -1.4375q-0.640625 -0.5625 -1.90625 -0.5625q-1.171875 0 -1.734375 0.40625q-0.5625 0.40625 -0.828125 1.46875l-1.640625 -0.234375q0.234375 -1.046875 0.734375 -1.6875q0.515625 -0.640625 1.46875 -0.984375q0.96875 -0.359375 2.25 -0.359375q1.265625 0 2.046875 0.296875q0.78125 0.296875 1.15625 0.75q0.375 0.453125 0.515625 1.140625q0.09375 0.421875 0.09375 1.53125l0 2.234375q0 2.328125 0.09375 2.953125q0.109375 0.609375 0.4375 1.171875l-1.75 0q-0.265625 -0.515625 -0.328125 -1.21875zm-0.140625 -3.71875q-0.90625 0.359375 -2.734375 0.625q-1.03125 0.140625 -1.453125 0.328125q-0.421875 0.1875 -0.65625 0.546875q-0.234375 0.359375 -0.234375 0.796875q0 0.671875 0.5 1.125q0.515625 0.4375 1.484375 0.4375q0.96875 0 1.71875 -0.421875q0.75 -0.4375 1.109375 -1.15625q0.265625 -0.578125 0.265625 -1.671875l0 -0.609375zm7.7351074 3.4375l0.234375 1.484375q-0.703125 0.140625 -1.265625 0.140625q-0.90625 0 -1.40625 -0.28125q-0.5 -0.296875 -0.703125 -0.75q-0.203125 -0.46875 -0.203125 -1.984375l0 -5.65625l-1.234375 0l0 -1.3125l1.234375 0l0 -2.4375l1.65625 -1.0l0 3.4375l1.6875 0l0 1.3125l-1.6875 0l0 5.75q0 0.71875 0.078125 0.921875q0.09375 0.203125 0.296875 0.328125q0.203125 0.125 0.578125 0.125q0.265625 0 0.734375 -0.078125zm1.5426636 -10.1875l0 -1.90625l1.671875 0l0 1.90625l-1.671875 0zm0 11.6875l0 -9.859375l1.671875 0l0 9.859375l-1.671875 0zm3.5042114 -4.921875q0 -2.734375 1.53125 -4.0625q1.265625 -1.09375 3.09375 -1.09375q2.03125 0 3.3125 1.34375q1.296875 1.328125 1.296875 3.671875q0 1.90625 -0.578125 3.0q-0.5625 1.078125 -1.65625 1.6875q-1.078125 0.59375 -2.375 0.59375q-2.0625 0 -3.34375 -1.328125q-1.28125 -1.328125 -1.28125 -3.8125zm1.71875 0q0 1.890625 0.828125 2.828125q0.828125 0.9375 2.078125 0.9375q1.25 0 2.0625 -0.9375q0.828125 -0.953125 0.828125 -2.890625q0 -1.828125 -0.828125 -2.765625q-0.828125 -0.9375 -2.0625 -0.9375q-1.25 0 -2.078125 0.9375q-0.828125 0.9375 -0.828125 2.828125zm9.281921 4.921875l0 -9.859375l1.5 0l0 1.40625q1.09375 -1.625 3.140625 -1.625q0.890625 0 1.640625 0.328125q0.75 0.3125 1.109375 0.84375q0.375 0.515625 0.53125 1.21875q0.09375 0.46875 0.09375 1.625l0 6.0625l-1.671875 0l0 -6.0q0 -1.015625 -0.203125 -1.515625q-0.1875 -0.515625 -0.6875 -0.8125q-0.5 -0.296875 -1.171875 -0.296875q-1.0625 0 -1.84375 0.671875q-0.765625 0.671875 -0.765625 2.578125l0 5.375l-1.671875 0zm9.703857 -2.9375l1.65625 -0.265625q0.140625 1.0 0.765625 1.53125q0.640625 0.515625 1.78125 0.515625q1.15625 0 1.703125 -0.46875q0.5625 -0.46875 0.5625 -1.09375q0 -0.5625 -0.484375 -0.890625q-0.34375 -0.21875 -1.703125 -0.5625q-1.84375 -0.46875 -2.5625 -0.796875q-0.703125 -0.34375 -1.078125 -0.9375q-0.359375 -0.609375 -0.359375 -1.328125q0 -0.65625 0.296875 -1.21875q0.3125 -0.5625 0.828125 -0.9375q0.390625 -0.28125 1.0625 -0.484375q0.671875 -0.203125 1.4375 -0.203125q1.171875 0 2.046875 0.34375q0.875 0.328125 1.28125 0.90625q0.421875 0.5625 0.578125 1.515625l-1.625 0.21875q-0.109375 -0.75 -0.65625 -1.171875q-0.53125 -0.4375 -1.5 -0.4375q-1.15625 0 -1.640625 0.390625q-0.484375 0.375 -0.484375 0.875q0 0.328125 0.203125 0.59375q0.203125 0.265625 0.640625 0.4375q0.25 0.09375 1.46875 0.4375q1.765625 0.46875 2.46875 0.765625q0.703125 0.296875 1.09375 0.875q0.40625 0.578125 0.40625 1.4375q0 0.828125 -0.484375 1.578125q-0.484375 0.734375 -1.40625 1.140625q-0.921875 0.390625 -2.078125 0.390625q-1.921875 0 -2.9375 -0.796875q-1.0 -0.796875 -1.28125 -2.359375z" fill-rule="nonzero"></path><path fill="#000000" d="m519.71655 162.7559l13.51178 0l0 -5.7480316l11.496094 11.496063l-11.496094 11.496063l0 -5.7480316l-13.51178 0z" fill-rule="nonzero"></path><path stroke="#000000" stroke-width="1.0" stroke-linejoin="round" stroke-linecap="butt" d="m519.71655 162.7559l13.51178 0l0 -5.7480316l11.496094 11.496063l-11.496094 11.496063l0 -5.7480316l-13.51178 0z" fill-rule="nonzero"></path><path fill="#000000" d="m544.72375 17.274416l-13.51178 -0.017017365l0 5.7480316l-11.496094 -11.510541l11.496094 -11.481585l0 5.7480316l13.51178 0.017017365z" fill-rule="nonzero"></path><path stroke="#000000" stroke-width="1.0" stroke-linejoin="round" stroke-linecap="butt" d="m544.72375 17.274416l-13.51178 -0.017017365l0 5.7480316l-11.496094 -11.510541l11.496094 -11.481585l0 5.7480316l13.51178 0.017017365z" fill-rule="nonzero"></path><path fill="#000000" d="m604.3543 95.02362l0 -13.51181l-5.747986 0l11.496033 -11.496063l11.496094 11.496063l-5.748047 0l0 13.51181z" fill-rule="nonzero"></path><path stroke="#000000" stroke-width="1.0" stroke-linejoin="round" stroke-linecap="butt" d="m604.3543 95.02362l0 -13.51181l-5.747986 0l11.496033 -11.496063l11.496094 11.496063l-5.748047 0l0 13.51181z" fill-rule="nonzero"></path><path fill="#000000" fill-opacity="0.0" d="m356.1102 120.99208l-252.8504 18.29921" fill-rule="nonzero"></path><path stroke="#000000" stroke-width="3.0" stroke-linejoin="round" stroke-linecap="butt" d="m356.1102 120.99209l-234.89735 16.999916" fill-rule="evenodd"></path><path fill="#000000" stroke="#000000" stroke-width="3.0" stroke-linecap="butt" d="m120.85516 133.04973l-13.221092 5.925003l13.936455 3.959549z" fill-rule="evenodd"></path><path fill="#000000" fill-opacity="0.0" d="m147.17061 139.29921l193.13387 0l0 38.992126l-193.13387 0z" fill-rule="nonzero"></path><path fill="#000000" d="m174.43092 166.21921l-5.28125 -13.59375l1.953125 0l3.53125 9.875q0.4375 1.1875 0.71875 2.21875q0.3125 -1.109375 0.734375 -2.21875l3.671875 -9.875l1.84375 0l-5.328125 13.59375l-1.84375 0zm14.771698 -1.21875q-0.9375 0.796875 -1.796875 1.125q-0.859375 0.3125 -1.84375 0.3125q-1.609375 0 -2.484375 -0.78125q-0.875 -0.796875 -0.875 -2.03125q0 -0.734375 0.328125 -1.328125q0.328125 -0.59375 0.859375 -0.953125q0.53125 -0.359375 1.203125 -0.546875q0.5 -0.140625 1.484375 -0.25q2.03125 -0.25 2.984375 -0.578125q0 -0.34375 0 -0.4375q0 -1.015625 -0.46875 -1.4375q-0.640625 -0.5625 -1.90625 -0.5625q-1.171875 0 -1.734375 0.40625q-0.5625 0.40625 -0.828125 1.46875l-1.640625 -0.234375q0.234375 -1.046875 0.734375 -1.6875q0.515625 -0.640625 1.46875 -0.984375q0.96875 -0.359375 2.25 -0.359375q1.265625 0 2.046875 0.296875q0.78125 0.296875 1.15625 0.75q0.375 0.453125 0.515625 1.140625q0.09375 0.421875 0.09375 1.53125l0 2.234375q0 2.328125 0.09375 2.953125q0.109375 0.609375 0.4375 1.171875l-1.75 0q-0.265625 -0.515625 -0.328125 -1.21875zm-0.140625 -3.71875q-0.90625 0.359375 -2.734375 0.625q-1.03125 0.140625 -1.453125 0.328125q-0.421875 0.1875 -0.65625 0.546875q-0.234375 0.359375 -0.234375 0.796875q0 0.671875 0.5 1.125q0.515625 0.4375 1.484375 0.4375q0.96875 0 1.71875 -0.421875q0.75 -0.4375 1.109375 -1.15625q0.265625 -0.578125 0.265625 -1.671875l0 -0.609375zm4.047592 4.9375l0 -13.59375l1.671875 0l0 13.59375l-1.671875 0zm4.191696 -11.6875l0 -1.90625l1.671875 0l0 1.90625l-1.671875 0zm0 11.6875l0 -9.859375l1.671875 0l0 9.859375l-1.671875 0zm10.519821 0l0 -1.25q-0.9375 1.46875 -2.75 1.46875q-1.171875 0 -2.171875 -0.640625q-0.984375 -0.65625 -1.53125 -1.8125q-0.53125 -1.171875 -0.53125 -2.6875q0 -1.46875 0.484375 -2.671875q0.5 -1.203125 1.46875 -1.84375q0.984375 -0.640625 2.203125 -0.640625q0.890625 0 1.578125 0.375q0.703125 0.375 1.140625 0.984375l0 -4.875l1.65625 0l0 13.59375l-1.546875 0zm-5.28125 -4.921875q0 1.890625 0.796875 2.828125q0.8125 0.9375 1.890625 0.9375q1.09375 0 1.859375 -0.890625q0.765625 -0.890625 0.765625 -2.734375q0 -2.015625 -0.78125 -2.953125q-0.78125 -0.953125 -1.921875 -0.953125q-1.109375 0 -1.859375 0.90625q-0.75 0.90625 -0.75 2.859375zm15.703842 3.703125q-0.9375 0.796875 -1.796875 1.125q-0.859375 0.3125 -1.84375 0.3125q-1.609375 0 -2.484375 -0.78125q-0.875 -0.796875 -0.875 -2.03125q0 -0.734375 0.328125 -1.328125q0.328125 -0.59375 0.859375 -0.953125q0.53125 -0.359375 1.203125 -0.546875q0.5 -0.140625 1.484375 -0.25q2.03125 -0.25 2.984375 -0.578125q0 -0.34375 0 -0.4375q0 -1.015625 -0.46875 -1.4375q-0.640625 -0.5625 -1.90625 -0.5625q-1.171875 0 -1.734375 0.40625q-0.5625 0.40625 -0.828125 1.46875l-1.640625 -0.234375q0.234375 -1.046875 0.734375 -1.6875q0.515625 -0.640625 1.46875 -0.984375q0.96875 -0.359375 2.25 -0.359375q1.265625 0 2.046875 0.296875q0.78125 0.296875 1.15625 0.75q0.375 0.453125 0.515625 1.140625q0.09375 0.421875 0.09375 1.53125l0 2.234375q0 2.328125 0.09375 2.953125q0.109375 0.609375 0.4375 1.171875l-1.75 0q-0.265625 -0.515625 -0.328125 -1.21875zm-0.140625 -3.71875q-0.90625 0.359375 -2.734375 0.625q-1.03125 0.140625 -1.453125 0.328125q-0.421875 0.1875 -0.65625 0.546875q-0.234375 0.359375 -0.234375 0.796875q0 0.671875 0.5 1.125q0.515625 0.4375 1.484375 0.4375q0.96875 0 1.71875 -0.421875q0.75 -0.4375 1.109375 -1.15625q0.265625 -0.578125 0.265625 -1.671875l0 -0.609375zm7.735092 3.4375l0.234375 1.484375q-0.703125 0.140625 -1.265625 0.140625q-0.90625 0 -1.40625 -0.28125q-0.5 -0.296875 -0.703125 -0.75q-0.203125 -0.46875 -0.203125 -1.984375l0 -5.65625l-1.234375 0l0 -1.3125l1.234375 0l0 -2.4375l1.65625 -1.0l0 3.4375l1.6875 0l0 1.3125l-1.6875 0l0 5.75q0 0.71875 0.078125 0.921875q0.09375 0.203125 0.296875 0.328125q0.203125 0.125 0.578125 0.125q0.265625 0 0.734375 -0.078125zm1.5426788 -10.1875l0 -1.90625l1.671875 0l0 1.90625l-1.671875 0zm0 11.6875l0 -9.859375l1.671875 0l0 9.859375l-1.671875 0zm3.5041962 -4.921875q0 -2.734375 1.53125 -4.0625q1.265625 -1.09375 3.09375 -1.09375q2.03125 0 3.3125 1.34375q1.296875 1.328125 1.296875 3.671875q0 1.90625 -0.578125 3.0q-0.5625 1.078125 -1.65625 1.6875q-1.078125 0.59375 -2.375 0.59375q-2.0625 0 -3.34375 -1.328125q-1.28125 -1.328125 -1.28125 -3.8125zm1.71875 0q0 1.890625 0.828125 2.828125q0.828125 0.9375 2.078125 0.9375q1.25 0 2.0625 -0.9375q0.828125 -0.953125 0.828125 -2.890625q0 -1.828125 -0.828125 -2.765625q-0.828125 -0.9375 -2.0625 -0.9375q-1.25 0 -2.078125 0.9375q-0.828125 0.9375 -0.828125 2.828125zm9.281967 4.921875l0 -9.859375l1.5 0l0 1.40625q1.09375 -1.625 3.140625 -1.625q0.890625 0 1.640625 0.328125q0.75 0.3125 1.109375 0.84375q0.375 0.515625 0.53125 1.21875q0.09375 0.46875 0.09375 1.625l0 6.0625l-1.671875 0l0 -6.0q0 -1.015625 -0.203125 -1.515625q-0.1875 -0.515625 -0.6875 -0.8125q-0.5 -0.296875 -1.171875 -0.296875q-1.0625 0 -1.84375 0.671875q-0.765625 0.671875 -0.765625 2.578125l0 5.375l-1.671875 0zm15.809006 0l0 -13.59375l6.03125 0q1.8125 0 2.75 0.359375q0.953125 0.359375 1.515625 1.296875q0.5625 0.921875 0.5625 2.046875q0 1.453125 -0.9375 2.453125q-0.921875 0.984375 -2.890625 1.25q0.71875 0.34375 1.09375 0.671875q0.78125 0.734375 1.484375 1.8125l2.375 3.703125l-2.265625 0l-1.796875 -2.828125q-0.796875 -1.21875 -1.3125 -1.875q-0.5 -0.65625 -0.90625 -0.90625q-0.40625 -0.265625 -0.8125 -0.359375q-0.3125 -0.078125 -1.015625 -0.078125l-2.078125 0l0 6.046875l-1.796875 0zm1.796875 -7.59375l3.859375 0q1.234375 0 1.921875 -0.25q0.703125 -0.265625 1.0625 -0.828125q0.375 -0.5625 0.375 -1.21875q0 -0.96875 -0.703125 -1.578125q-0.703125 -0.625 -2.21875 -0.625l-4.296875 0l0 4.5zm18.176086 4.421875l1.71875 0.21875q-0.40625 1.5 -1.515625 2.34375q-1.09375 0.828125 -2.8125 0.828125q-2.15625 0 -3.421875 -1.328125q-1.265625 -1.328125 -1.265625 -3.734375q0 -2.484375 1.265625 -3.859375q1.28125 -1.375 3.328125 -1.375q1.984375 0 3.234375 1.34375q1.25 1.34375 1.25 3.796875q0 0.140625 -0.015625 0.4375l-7.34375 0q0.09375 1.625 0.921875 2.484375q0.828125 0.859375 2.0625 0.859375q0.90625 0 1.546875 -0.46875q0.65625 -0.484375 1.046875 -1.546875zm-5.484375 -2.703125l5.5 0q-0.109375 -1.234375 -0.625 -1.859375q-0.796875 -0.96875 -2.078125 -0.96875q-1.140625 0 -1.9375 0.78125q-0.78125 0.765625 -0.859375 2.046875zm8.438202 2.9375l1.65625 -0.265625q0.140625 1.0 0.765625 1.53125q0.640625 0.515625 1.78125 0.515625q1.15625 0 1.703125 -0.46875q0.5625 -0.46875 0.5625 -1.09375q0 -0.5625 -0.484375 -0.890625q-0.34375 -0.21875 -1.703125 -0.5625q-1.84375 -0.46875 -2.5625 -0.796875q-0.703125 -0.34375 -1.078125 -0.9375q-0.359375 -0.609375 -0.359375 -1.328125q0 -0.65625 0.296875 -1.21875q0.3125 -0.5625 0.828125 -0.9375q0.390625 -0.28125 1.0625 -0.484375q0.671875 -0.203125 1.4375 -0.203125q1.171875 0 2.046875 0.34375q0.875 0.328125 1.28125 0.90625q0.421875 0.5625 0.578125 1.515625l-1.625 0.21875q-0.109375 -0.75 -0.65625 -1.171875q-0.53125 -0.4375 -1.5 -0.4375q-1.15625 0 -1.640625 0.390625q-0.484375 0.375 -0.484375 0.875q0 0.328125 0.203125 0.59375q0.203125 0.265625 0.640625 0.4375q0.25 0.09375 1.46875 0.4375q1.765625 0.46875 2.46875 0.765625q0.703125 0.296875 1.09375 0.875q0.40625 0.578125 0.40625 1.4375q0 0.828125 -0.484375 1.578125q-0.484375 0.734375 -1.40625 1.140625q-0.921875 0.390625 -2.078125 0.390625q-1.921875 0 -2.9375 -0.796875q-1.0 -0.796875 -1.28125 -2.359375zm16.453125 2.9375l0 -1.453125q-1.140625 1.671875 -3.125 1.671875q-0.859375 0 -1.625 -0.328125q-0.75 -0.34375 -1.125 -0.84375q-0.359375 -0.5 -0.515625 -1.234375q-0.09375 -0.5 -0.09375 -1.5625l0 -6.109375l1.671875 0l0 5.46875q0 1.3125 0.09375 1.765625q0.15625 0.65625 0.671875 1.03125q0.515625 0.375 1.265625 0.375q0.75 0 1.40625 -0.375q0.65625 -0.390625 0.921875 -1.046875q0.28125 -0.671875 0.28125 -1.9375l0 -5.28125l1.671875 0l0 9.859375l-1.5 0zm3.8913574 0l0 -13.59375l1.671875 0l0 13.59375l-1.671875 0zm7.832306 -1.5l0.234375 1.484375q-0.703125 0.140625 -1.265625 0.140625q-0.90625 0 -1.40625 -0.28125q-0.5 -0.296875 -0.703125 -0.75q-0.203125 -0.46875 -0.203125 -1.984375l0 -5.65625l-1.234375 0l0 -1.3125l1.234375 0l0 -2.4375l1.65625 -1.0l0 3.4375l1.6875 0l0 1.3125l-1.6875 0l0 5.75q0 0.71875 0.078125 0.921875q0.09375 0.203125 0.296875 0.328125q0.203125 0.125 0.578125 0.125q0.265625 0 0.734375 -0.078125zm0.8551941 -1.4375l1.65625 -0.265625q0.140625 1.0 0.765625 1.53125q0.640625 0.515625 1.78125 0.515625q1.15625 0 1.703125 -0.46875q0.5625 -0.46875 0.5625 -1.09375q0 -0.5625 -0.484375 -0.890625q-0.34375 -0.21875 -1.703125 -0.5625q-1.84375 -0.46875 -2.5625 -0.796875q-0.703125 -0.34375 -1.078125 -0.9375q-0.359375 -0.609375 -0.359375 -1.328125q0 -0.65625 0.296875 -1.21875q0.3125 -0.5625 0.828125 -0.9375q0.390625 -0.28125 1.0625 -0.484375q0.671875 -0.203125 1.4375 -0.203125q1.171875 0 2.046875 0.34375q0.875 0.328125 1.28125 0.90625q0.421875 0.5625 0.578125 1.515625l-1.625 0.21875q-0.109375 -0.75 -0.65625 -1.171875q-0.53125 -0.4375 -1.5 -0.4375q-1.15625 0 -1.640625 0.390625q-0.484375 0.375 -0.484375 0.875q0 0.328125 0.203125 0.59375q0.203125 0.265625 0.640625 0.4375q0.25 0.09375 1.46875 0.4375q1.765625 0.46875 2.46875 0.765625q0.703125 0.296875 1.09375 0.875q0.40625 0.578125 0.40625 1.4375q0 0.828125 -0.484375 1.578125q-0.484375 0.734375 -1.40625 1.140625q-0.921875 0.390625 -2.078125 0.390625q-1.921875 0 -2.9375 -0.796875q-1.0 -0.796875 -1.28125 -2.359375z" fill-rule="nonzero"></path><path fill="#000000" d="m216.56964 192.21921q-1.375 -1.75 -2.328125 -4.078125q-0.953125 -2.34375 -0.953125 -4.84375q0 -2.21875 0.703125 -4.234375q0.84375 -2.34375 2.578125 -4.671875l1.203125 0q-1.125 1.921875 -1.484375 2.75q-0.5625 1.28125 -0.890625 2.671875q-0.40625 1.734375 -0.40625 3.484375q0 4.46875 2.78125 8.921875l-1.203125 0zm3.290802 -4.0l0 -13.59375l1.8125 0l0 5.578125l7.0625 0l0 -5.578125l1.796875 0l0 13.59375l-1.796875 0l0 -6.40625l-7.0625 0l0 6.40625l-1.8125 0zm16.879196 0l0 -12.0l-4.46875 0l0 -1.59375l10.765625 0l0 1.59375l-4.5 0l0 12.0l-1.796875 0zm7.880356 0l0 -13.59375l2.71875 0l3.21875 9.625q0.4375 1.34375 0.640625 2.015625q0.234375 -0.75 0.734375 -2.1875l3.25 -9.453125l2.421875 0l0 13.59375l-1.734375 0l0 -11.390625l-3.953125 11.390625l-1.625 0l-3.9375 -11.578125l0 11.578125l-1.734375 0zm15.525177 0l0 -13.59375l1.796875 0l0 11.984375l6.703125 0l0 1.609375l-8.5 0zm11.328827 4.0l-1.1875 0q2.765625 -4.453125 2.765625 -8.921875q0 -1.734375 -0.390625 -3.453125q-0.328125 -1.390625 -0.890625 -2.671875q-0.359375 -0.84375 -1.484375 -2.78125l1.1875 0q1.75 2.328125 2.578125 4.671875q0.71875 2.015625 0.71875 4.234375q0 2.5 -0.96875 4.84375q-0.953125 2.328125 -2.328125 4.078125z" fill-rule="nonzero"></path><path fill="#000000" fill-opacity="0.0" d="m357.59842 47.031498l93.00787 0l0 56.976376l-93.00787 0z" fill-rule="nonzero"></path><path fill="#000000" d="m388.76605 73.95149l-3.609375 -13.593746l1.84375 0l2.0625 8.906246q0.34375 1.40625 0.578125 2.78125q0.515625 -2.171875 0.609375 -2.515625l2.59375 -9.171871l2.171875 0l1.953125 6.874996q0.734375 2.5625 1.046875 4.8125q0.265625 -1.28125 0.6875 -2.953125l2.125 -8.734371l1.8125 0l-3.734375 13.593746l-1.734375 0l-2.859375 -10.359371q-0.359375 -1.296875 -0.421875 -1.59375q-0.21875 0.9375 -0.40625 1.59375l-2.890625 10.359371l-1.828125 0zm21.764923 -3.171875l1.71875 0.21875q-0.40625 1.5 -1.515625 2.34375q-1.09375 0.828125 -2.8125 0.828125q-2.15625 0 -3.421875 -1.328125q-1.265625 -1.328125 -1.265625 -3.734375q0 -2.484375 1.265625 -3.859375q1.28125 -1.3749962 3.328125 -1.3749962q1.984375 0 3.234375 1.3437462q1.25 1.34375 1.25 3.796875q0 0.140625 -0.015625 0.4375l-7.34375 0q0.09375 1.625 0.921875 2.484375q0.828125 0.859375 2.0625 0.859375q0.90625 0 1.546875 -0.46875q0.65625 -0.484375 1.046875 -1.546875zm-5.484375 -2.703125l5.5 0q-0.109375 -1.234375 -0.625 -1.859375q-0.796875 -0.96875 -2.078125 -0.96875q-1.140625 0 -1.9375 0.78125q-0.78125 0.765625 -0.859375 2.046875zm10.656952 5.875l-1.546875 0l0 -13.593746l1.65625 0l0 4.843746q1.0625 -1.3281212 2.703125 -1.3281212q0.90625 0 1.71875 0.3749962q0.8125 0.359375 1.328125 1.03125q0.53125 0.65625 0.828125 1.59375q0.296875 0.9375 0.296875 2.0q0 2.53125 -1.25 3.921875q-1.25 1.375 -3.0 1.375q-1.75 0 -2.734375 -1.453125l0 1.234375zm-0.015625 -5.0q0 1.765625 0.46875 2.5625q0.796875 1.28125 2.140625 1.28125q1.09375 0 1.890625 -0.9375q0.796875 -0.953125 0.796875 -2.84375q0 -1.921875 -0.765625 -2.84375q-0.765625 -0.921875 -1.84375 -0.921875q-1.09375 0 -1.890625 0.953125q-0.796875 0.953125 -0.796875 2.75z" fill-rule="nonzero"></path><path fill="#000000" d="m387.4736 95.95149l5.234375 -13.59375l1.9375 0l5.5625 13.59375l-2.046875 0l-1.59375 -4.125l-5.6875 0l-1.484375 4.125l-1.921875 0zm3.921875 -5.578125l4.609375 0l-1.40625 -3.78125q-0.65625 -1.703125 -0.96875 -2.8125q-0.265625 1.3125 -0.734375 2.59375l-1.5 4.0zm9.802948 9.359375l0 -13.640625l1.53125 0l0 1.28125q0.53125 -0.75 1.203125 -1.125q0.6875 -0.375 1.640625 -0.375q1.265625 0 2.234375 0.65625q0.96875 0.640625 1.453125 1.828125q0.5 1.1875 0.5 2.59375q0 1.515625 -0.546875 2.734375q-0.546875 1.203125 -1.578125 1.84375q-1.03125 0.640625 -2.171875 0.640625q-0.84375 0 -1.515625 -0.34375q-0.65625 -0.359375 -1.078125 -0.890625l0 4.796875l-1.671875 0zm1.515625 -8.65625q0 1.90625 0.765625 2.8125q0.78125 0.90625 1.875 0.90625q1.109375 0 1.890625 -0.9375q0.796875 -0.9375 0.796875 -2.921875q0 -1.875 -0.78125 -2.8125q-0.765625 -0.9375 -1.84375 -0.9375q-1.0625 0 -1.890625 1.0q-0.8125 1.0 -0.8125 2.890625zm8.860107 8.65625l0 -13.640625l1.53125 0l0 1.28125q0.53125 -0.75 1.203125 -1.125q0.6875 -0.375 1.640625 -0.375q1.265625 0 2.234375 0.65625q0.96875 0.640625 1.453125 1.828125q0.5 1.1875 0.5 2.59375q0 1.515625 -0.546875 2.734375q-0.546875 1.203125 -1.578125 1.84375q-1.03125 0.640625 -2.171875 0.640625q-0.84375 0 -1.515625 -0.34375q-0.65625 -0.359375 -1.078125 -0.890625l0 4.796875l-1.671875 0zm1.515625 -8.65625q0 1.90625 0.765625 2.8125q0.78125 0.90625 1.875 0.90625q1.109375 0 1.890625 -0.9375q0.796875 -0.9375 0.796875 -2.921875q0 -1.875 -0.78125 -2.8125q-0.765625 -0.9375 -1.84375 -0.9375q-1.0625 0 -1.890625 1.0q-0.8125 1.0 -0.8125 2.890625z" fill-rule="nonzero"></path><path fill="#000000" d="m380.0408 121.95149q-1.375 -1.75 -2.328125 -4.078125q-0.953125 -2.34375 -0.953125 -4.84375q0 -2.21875 0.703125 -4.234375q0.84375 -2.34375 2.578125 -4.671875l1.203125 0q-1.125 1.921875 -1.484375 2.75q-0.5625 1.28125 -0.890625 2.671875q-0.40625 1.734375 -0.40625 3.484375q0 4.46875 2.78125 8.921875l-1.203125 0zm3.337677 -4.0l0 -13.59375l9.171875 0l0 1.59375l-7.375 0l0 4.21875l6.375 0l0 1.609375l-6.375 0l0 6.171875l-1.796875 0zm11.052216 0l0 -13.59375l1.671875 0l0 13.59375l-1.671875 0zm10.613586 -1.21875q-0.9375 0.796875 -1.796875 1.125q-0.859375 0.3125 -1.84375 0.3125q-1.609375 0 -2.484375 -0.78125q-0.875 -0.796875 -0.875 -2.03125q0 -0.734375 0.328125 -1.328125q0.328125 -0.59375 0.859375 -0.953125q0.53125 -0.359375 1.203125 -0.546875q0.5 -0.140625 1.484375 -0.25q2.03125 -0.25 2.984375 -0.578125q0 -0.34375 0 -0.4375q0 -1.015625 -0.46875 -1.4375q-0.640625 -0.5625 -1.90625 -0.5625q-1.171875 0 -1.734375 0.40625q-0.5625 0.40625 -0.828125 1.46875l-1.640625 -0.234375q0.234375 -1.046875 0.734375 -1.6875q0.515625 -0.640625 1.46875 -0.984375q0.96875 -0.359375 2.25 -0.359375q1.265625 0 2.046875 0.296875q0.78125 0.296875 1.15625 0.75q0.375 0.453125 0.515625 1.140625q0.09375 0.421875 0.09375 1.53125l0 2.234375q0 2.328125 0.09375 2.953125q0.109375 0.609375 0.4375 1.171875l-1.75 0q-0.265625 -0.515625 -0.328125 -1.21875zm-0.140625 -3.71875q-0.90625 0.359375 -2.734375 0.625q-1.03125 0.140625 -1.453125 0.328125q-0.421875 0.1875 -0.65625 0.546875q-0.234375 0.359375 -0.234375 0.796875q0 0.671875 0.5 1.125q0.515625 0.4375 1.484375 0.4375q0.96875 0 1.71875 -0.421875q0.75 -0.4375 1.109375 -1.15625q0.265625 -0.578125 0.265625 -1.671875l0 -0.609375zm3.406952 2.0l1.65625 -0.265625q0.140625 1.0 0.765625 1.53125q0.640625 0.515625 1.78125 0.515625q1.15625 0 1.703125 -0.46875q0.5625 -0.46875 0.5625 -1.09375q0 -0.5625 -0.484375 -0.890625q-0.34375 -0.21875 -1.703125 -0.5625q-1.84375 -0.46875 -2.5625 -0.796875q-0.703125 -0.34375 -1.078125 -0.9375q-0.359375 -0.609375 -0.359375 -1.328125q0 -0.65625 0.296875 -1.21875q0.3125 -0.5625 0.828125 -0.9375q0.390625 -0.28125 1.0625 -0.484375q0.671875 -0.203125 1.4375 -0.203125q1.171875 0 2.046875 0.34375q0.875 0.328125 1.28125 0.90625q0.421875 0.5625 0.578125 1.515625l-1.625 0.21875q-0.109375 -0.75 -0.65625 -1.171875q-0.53125 -0.4375 -1.5 -0.4375q-1.15625 0 -1.640625 0.390625q-0.484375 0.375 -0.484375 0.875q0 0.328125 0.203125 0.59375q0.203125 0.265625 0.640625 0.4375q0.25 0.09375 1.46875 0.4375q1.765625 0.46875 2.46875 0.765625q0.703125 0.296875 1.09375 0.875q0.40625 0.578125 0.40625 1.4375q0 0.828125 -0.484375 1.578125q-0.484375 0.734375 -1.40625 1.140625q-0.921875 0.390625 -2.078125 0.390625q-1.921875 0 -2.9375 -0.796875q-1.0 -0.796875 -1.28125 -2.359375zm10.015625 2.9375l0 -13.59375l1.671875 0l0 7.75l3.953125 -4.015625l2.15625 0l-3.765625 3.65625l4.140625 6.203125l-2.0625 0l-3.25 -5.03125l-1.171875 1.125l0 3.90625l-1.671875 0zm10.40625 4.0l-1.1875 0q2.765625 -4.453125 2.765625 -8.921875q0 -1.734375 -0.390625 -3.453125q-0.328125 -1.390625 -0.890625 -2.671875q-0.359375 -0.84375 -1.484375 -2.78125l1.1875 0q1.75 2.328125 2.578125 4.671875q0.71875 2.015625 0.71875 4.234375q0 2.5 -0.96875 4.84375q-0.953125 2.328125 -2.328125 4.078125z" fill-rule="nonzero"></path></g></svg>

