<?xml version="1.0" encoding="utf-8"?>
<!-- Generator: Adobe Illustrator 22.1.0, SVG Export Plug-In . SVG Version: 6.00 Build 0)  -->
<svg version="1.1" id="Layer_1" xmlns="http://www.w3.org/2000/svg" xmlns:xlink="http://www.w3.org/1999/xlink" x="0px" y="0px"
	 viewBox="0 0 51 51" style="enable-background:new 0 0 51 51;" xml:space="preserve">
<style type="text/css">
	.st0{fill:#E6E7E8;}
	.st1{fill:#008CCF;}
	.st2{fill:#70B12F;}
	.st3{fill:#FFFFFF;}
</style>
<g>
	<circle class="st0" cx="25.5" cy="25.5" r="25"/>
	<path class="st1" d="M41.7,36.5c-3.5,5.3-9.6,8.7-16.3,8.7c-10.8,0-19.7-8.9-19.7-19.7S14.5,5.8,25.4,5.8c6.8,0,12.8,3.4,16.3,8.7
		l4.6-2.6C41.9,5,34.2,0.5,25.4,0.5c-13.7,0-25,11.2-25,25s11.2,25,25,25c8.8,0,16.5-4.5,20.9-11.3L41.7,36.5z"/>
	<path class="st2" d="M25.3,35.1c-4.6,0-8.5-3.3-9.4-7.6h12v-3.9h-12c0.9-4.4,4.8-7.6,9.4-7.6c3,0,5.8,1.5,7.5,3.7l4.1-2.3
		c-2.6-3.6-6.8-5.9-11.6-5.9c-7.9,0-14.2,6.3-14.2,14.2s6.3,14.2,14.2,14.2c4.8,0,9-2.3,11.6-5.9l-4.1-2.3
		C31.1,33.7,28.3,35.1,25.3,35.1z"/>
	<path class="st3" d="M25.5,5.8c-10.9,0-19.7,8.9-19.7,19.7s8.9,19.7,19.7,19.7s19.7-8.8,19.7-19.7S36.4,5.8,25.5,5.8z M25.5,39.5
		c-7.8,0-14-6.3-14-14s6.3-14,14-14c7.8,0,14,6.3,14,14S33.3,39.5,25.5,39.5z"/>
</g>
</svg>
