<?xml version="1.0" encoding="UTF-8"?>
<svg width="178px" height="178px" viewBox="0 0 178 178" version="1.1" xmlns="http://www.w3.org/2000/svg" xmlns:xlink="http://www.w3.org/1999/xlink">
    <title>gsa-logo-blue</title>
    <g id="Page-1" stroke="none" stroke-width="1" fill="none" fill-rule="evenodd">
        <g id="gsa-logo-blue">
            <rect id="gsa-background-white-on-dark-bg" fill="#FFFFFF" x="0" y="0" width="178" height="178"></rect>
            <path d="M177.735849,0.00135173191 L177.735849,177.902788 L-1.70530257e-13,177.902788 L-1.70530257e-13,0.00135173191 L177.735849,0.00135173191 Z M34.4426358,91.3873839 C20.0112081,94.1584342 12.7219938,107.170544 12.7219938,119.358096 C12.7219938,128.462011 14.5248662,137.121543 24.9112363,144.204618 C34.4219606,150.691088 48.5958851,150.598912 59.5795012,147.471841 L60.18637,147.295016 L60.1475078,117.327119 L40.0759787,117.327119 L39.9864264,126.140411 L50.384624,126.118446 L50.4454519,140.367389 C50.4454519,140.367389 38.3913827,141.67519 33.2243875,138.973416 C25.3421007,134.850634 22.0878063,127.351901 22.2567727,119.358096 C22.4122219,111.859364 24.6848212,105.72419 31.7864827,101.543959 C39.6062518,96.9452655 51.5833688,98.4345815 58.5785916,102.702184 L58.97657,102.95145 L59.2908476,93.5754999 C52.8819488,91.0747958 43.9182766,89.5676148 34.4426358,91.3873839 Z M124.81301,120.99572 L112.341594,149.052605 L121.693889,149.052605 L145.38637,137.517263 L138.685159,132.216784 L126.52802,138.453337 L131.514221,127.075134 L124.81301,120.99572 Z M152.838637,120.824725 L146.240496,127.264038 L155.44579,149.052267 L165.57871,149.052267 L152.838637,120.824725 Z M83.6054633,91.6513096 C78.9859194,93.2987327 75.1250352,97.3252042 74.021684,101.892368 C69.4257955,120.928133 94.3703182,120.532751 97.5215433,129.724528 C97.7851309,132.74227 97.3120248,135.71608 95.4229794,137.469952 C90.0139722,142.494496 80.8180099,140.188924 75.6347634,137.496906 L75.3345536,137.338158 L74.415376,146.660039 C83.2117713,149.812954 94.2621797,150.243818 101.855534,144.297888 C104.493101,141.660321 107.488876,137.4784 107.237116,131.956576 C106.451422,114.757477 92.0081667,116.85773 83.869051,107.931231 C82.7690791,105.013179 83.6172909,101.165812 86.1027879,99.7921149 C91.088989,97.0328921 98.5725148,98.6110391 103.825683,101.236778 C103.693889,100.844776 105.077725,92.4032103 105.077725,92.4032103 C98.8090679,90.4212334 90.0413967,88.679189 83.6054633,91.6513096 Z M139.035258,90.5910448 L125.436835,120.528527 L135.100028,120.528527 L139.364742,110.88561 L143.3608,120.528527 L152.713096,120.528527 L139.035258,90.5910448 Z" id="Combined-Shape" fill="#005087" fill-rule="nonzero"></path>
        </g>
    </g>
</svg>