<?xml version="1.0" encoding="UTF-8"?>
<svg width="333px" height="333px" viewBox="0 0 333 333" version="1.1" xmlns="http://www.w3.org/2000/svg" xmlns:xlink="http://www.w3.org/1999/xlink">
    <!-- Generator: Sketch 55.2 (78181) - https://sketchapp.com -->
    <title>18F-Logo-2016-Blue</title>
    <desc>Created with Sketch.</desc>
    <g id="Page-1" stroke="none" stroke-width="1" fill="none" fill-rule="evenodd">
        <g id="18F-Logo-2016-Blue" fill-rule="nonzero">
            <path d="M327.3,0 L5.7,0 C2.5,0 0,2.5 0,5.7 L0,327.3 C0,330.4 2.5,333 5.7,333 L327.3,333 C330.4,333 333,330.5 333,327.3 L333,5.7 C333,2.5 330.5,0 327.3,0 Z" id="Path" fill="#00CFFF"></path>
            <path d="M98,229.3 C98,230.4 97.1,231.3 96,231.3 L83.5,231.3 C82.4,231.3 81.5,230.4 81.5,229.3 L81.5,117.4 L65.2,117.4 C64.1,117.4 63.2,116.5 63.2,115.4 L63.2,103.5 C63.2,102.4 64.1,101.5 65.2,101.5 L96,101.5 C97.1,101.5 98,102.4 98,103.5 L98,229.3 Z" id="Path" fill="#1C304A"></path>
            <path d="M269.8,115.4 C269.8,116.5 268.9,117.4 267.8,117.4 L233.4,117.4 L233.4,156.4 L261.7,156.4 C262.8,156.4 263.7,157.3 263.7,158.4 L263.7,170.3 C263.7,171.4 262.8,172.3 261.7,172.3 L233.4,172.3 L233.4,229.4 C233.4,230.5 232.5,231.4 231.4,231.4 L218.9,231.4 C217.8,231.4 216.9,230.5 216.9,229.4 L216.9,103.5 C216.9,102.4 217.8,101.5 218.9,101.5 L267.8,101.5 C268.9,101.5 269.8,102.4 269.8,103.5 L269.8,115.4 L269.8,115.4 Z" id="Path" fill="#1C304A"></path>
            <path d="M157.5,233.4 C135.6,233.4 117.7,215.5 117.7,193.6 C117.7,180.4 124.1,168.5 134.8,161.1 C127.1,154.5 122.5,144.8 122.5,134.7 C122.5,115.4 138.2,99.7 157.5,99.7 C176.8,99.7 192.5,115.4 192.5,134.7 C192.5,144.9 187.9,154.5 180.2,161.1 C190.9,168.5 197.3,180.5 197.3,193.6 C197.3,215.5 179.4,233.4 157.5,233.4 Z M157.5,169.6 C144.3,169.6 133.6,180.3 133.6,193.5 C133.6,206.7 144.3,217.4 157.5,217.4 C170.7,217.4 181.4,206.7 181.4,193.5 C181.4,180.4 170.7,169.6 157.5,169.6 Z M157.5,153.8 C168.1,153.8 176.6,145.2 176.6,134.7 C176.6,124.1 168,115.6 157.5,115.6 C147,115.6 138.4,124.2 138.4,134.7 C138.4,145.2 146.9,153.8 157.5,153.8 Z" id="Shape" fill="#1C304A"></path>
        </g>
    </g>
</svg>